<?xml version="1.0" standalone="no"?>
<!DOCTYPE svg PUBLIC "-//W3C//DTD SVG 20010904//EN"
 "http://www.w3.org/TR/2001/REC-SVG-20010904/DTD/svg10.dtd">
<svg version="1.0" xmlns="http://www.w3.org/2000/svg"
 width="842.000000pt" height="421.000000pt" viewBox="0 0 842.000000 421.000000"
 preserveAspectRatio="xMidYMid meet">

<g transform="translate(0.000000,490.000000) scale(0.100000,-0.100000)"
fill="#ed1a3b" stroke="none">
<path d="M6967 4354 c-10 -11 3 -24 23 -24 17 0 19 -9 22 -72 2 -46 7 -73 16
-76 9 -3 12 16 12 72 0 74 1 76 25 76 16 0 25 6 25 15 0 12 -13 15 -58 15 -32
0 -62 -3 -65 -6z"/>
<path d="M7114 4347 c-10 -26 1 -160 13 -164 8 -3 13 15 15 59 l3 63 23 -63
c13 -35 28 -62 34 -60 6 2 21 31 33 63 l23 60 3 -59 c3 -37 9 -61 17 -64 10
-3 12 16 10 85 -4 110 -21 118 -57 26 -13 -35 -27 -63 -30 -63 -4 0 -15 24
-25 53 -26 73 -49 97 -62 64z"/>
<path d="M5985 4259 c-456 -42 -841 -361 -970 -803 -109 -379 -3 -801 274
-1084 62 -63 169 -152 184 -152 4 0 7 29 7 65 l0 65 -88 87 c-188 187 -286
402 -299 659 -35 674 587 1185 1240 1020 172 -44 318 -126 450 -255 391 -379
404 -1004 28 -1394 -168 -175 -369 -278 -600 -308 l-89 -11 -52 -53 c-50 -50
-51 -53 -30 -60 52 -17 297 20 413 62 455 163 747 574 747 1053 0 288 -102
548 -299 762 -167 181 -444 322 -675 343 -125 12 -153 12 -241 4z"/>
<path d="M5789 3622 c-218 -202 -393 -368 -389 -370 4 -2 53 9 108 23 55 14
103 25 106 25 3 0 7 -332 8 -737 l3 -736 282 269 283 269 0 813 c0 446 -1 812
-2 811 -2 0 -181 -165 -399 -367z"/>
<path d="M1140 2931 l0 -811 233 2 232 3 3 331 2 332 188 5 c249 6 369 38 485
129 115 91 170 281 133 457 -30 144 -93 229 -209 286 -139 68 -145 68 -629 73
l-438 3 0 -810z m663 648 c47 -13 102 -60 127 -110 62 -120 44 -361 -33 -454
-46 -56 -95 -75 -199 -75 l-88 0 0 325 0 325 78 0 c42 0 94 -5 115 -11z"/>
<path d="M2787 3733 c-5 -9 -477 -1600 -477 -1608 0 -3 40 -5 90 -5 l89 0 20
68 c69 236 81 274 86 283 4 5 107 9 245 9 l239 0 15 -52 c9 -29 31 -109 49
-178 l34 -125 232 -3 c202 -2 231 0 231 13 0 8 -99 371 -220 805 -121 435
-220 792 -220 795 0 8 -408 6 -413 -2z m158 -745 l91 -343 -194 -3 c-107 -1
-196 -1 -197 0 -2 2 37 143 86 313 49 171 94 327 100 349 6 21 13 35 16 32 4
-3 47 -160 98 -348z"/>
<path d="M3540 3731 c0 -4 97 -234 215 -511 l215 -502 0 -299 0 -299 233 2
232 3 5 315 5 315 179 455 c98 250 184 472 192 493 l13 37 -92 0 -93 0 -143
-377 c-79 -208 -146 -381 -150 -386 -4 -4 -80 165 -169 375 l-161 383 -240 3
c-136 1 -241 -2 -241 -7z"/>
<path d="M1620 1715 l0 -135 30 0 c28 0 30 3 30 35 0 45 18 45 48 0 17 -27 29
-35 52 -35 28 0 40 13 22 24 -5 3 -21 23 -36 45 l-28 40 31 40 c37 46 38 51 9
51 -12 0 -40 -18 -63 -40 l-40 -39 3 74 4 75 -31 0 -31 0 0 -135z"/>
<path d="M2400 1803 c0 -37 -3 -44 -12 -35 -15 15 -53 16 -78 2 -42 -22 -50
-131 -13 -172 19 -21 73 -24 92 -5 11 10 14 10 18 0 3 -7 16 -13 29 -13 l24 0
0 135 0 135 -30 0 c-29 0 -30 -1 -30 -47z m-5 -122 c0 -30 -5 -47 -17 -54 -23
-15 -48 8 -48 43 0 47 10 61 39 58 24 -3 26 -7 26 -47z"/>
<path d="M5290 1715 l0 -135 24 0 c20 0 25 6 28 32 4 44 23 46 50 4 19 -29 29
-36 56 -36 l33 0 -41 57 -40 57 35 36 c42 43 43 50 10 50 -17 0 -39 -14 -65
-42 l-40 -43 0 78 c0 75 0 77 -25 77 l-25 0 0 -135z"/>
<path d="M1130 1710 l0 -130 58 0 c102 0 152 41 152 128 0 87 -54 132 -160
132 l-50 0 0 -130z m128 64 c17 -12 22 -25 22 -61 0 -55 -21 -83 -62 -83 l-28
0 0 80 c0 77 1 80 23 80 12 0 33 -7 45 -16z"/>
<path d="M3427 1834 c-4 -4 -7 -63 -7 -131 l0 -123 30 0 c29 0 30 1 30 50 0
28 5 50 10 50 6 0 25 -22 42 -50 27 -44 35 -50 64 -50 l34 0 -46 71 -45 71 40
52 c23 29 41 56 41 59 0 4 -11 7 -24 7 -17 0 -38 -15 -68 -51 l-43 -51 -5 48
c-4 40 -9 50 -25 52 -12 2 -24 0 -28 -4z"/>
<path d="M3960 1710 l0 -130 25 0 c25 0 25 1 25 93 l0 92 53 -92 c51 -92 53
-93 90 -93 l38 0 -3 128 c-3 122 -4 127 -25 130 -21 3 -22 0 -25 -90 l-3 -93
-53 93 c-51 88 -55 92 -88 92 l-34 0 0 -130z"/>
<path d="M4469 1798 c-7 -13 -19 -29 -28 -35 -15 -12 -14 -14 2 -27 13 -10 17
-28 17 -73 0 -32 5 -64 12 -71 7 -7 31 -12 55 -12 39 0 43 2 43 24 0 21 -5 24
-27 23 -27 -2 -28 0 -31 50 -3 50 -2 52 25 55 39 4 40 42 1 46 -20 2 -28 9
-28 23 0 26 -27 24 -41 -3z"/>
<path d="M1390 1697 c0 -69 3 -87 18 -100 22 -20 83 -22 100 -5 9 9 12 9 12 0
0 -7 11 -12 25 -12 l26 0 -3 98 c-3 96 -3 97 -28 97 -24 0 -25 -3 -30 -69 -5
-76 -24 -102 -54 -77 -12 10 -16 32 -16 82 0 67 -1 69 -25 69 -25 0 -25 -1
-25 -83z"/>
<path d="M1867 1773 c-11 -3 -17 -12 -15 -21 3 -13 13 -16 37 -14 32 2 61 -11
61 -29 0 -5 -17 -9 -38 -9 -52 0 -82 -23 -82 -64 0 -17 5 -37 12 -44 16 -16
80 -15 97 1 11 10 14 10 18 0 3 -7 13 -13 24 -13 17 0 19 8 19 80 0 67 -3 83
-20 100 -19 19 -67 25 -113 13z m83 -109 c0 -18 -23 -44 -40 -44 -25 0 -35 17
-20 35 12 14 60 21 60 9z"/>
<path d="M2057 1773 c-4 -3 -7 -48 -7 -100 l0 -93 30 0 c30 0 30 0 30 59 0 75
6 91 35 91 29 0 35 -16 35 -91 0 -56 1 -59 25 -59 25 0 25 1 25 84 0 76 -2 86
-22 100 -26 18 -61 21 -88 6 -13 -7 -21 -7 -25 0 -7 11 -28 13 -38 3z"/>
<path d="M2537 1773 c-10 -3 -17 -12 -15 -21 3 -13 14 -17 43 -17 28 0 40 -5
43 -16 2 -13 -8 -17 -43 -22 -26 -2 -52 -10 -58 -16 -14 -14 -13 -67 3 -85 14
-18 80 -22 97 -5 8 8 13 8 17 0 4 -6 16 -11 27 -11 17 0 19 7 19 80 0 67 -3
83 -20 100 -19 19 -67 25 -113 13z m71 -125 c-3 -25 -34 -36 -51 -19 -14 14 9
41 35 41 14 0 19 -6 16 -22z"/>
<path d="M2727 1773 c-4 -3 -7 -48 -7 -100 l0 -93 30 0 c29 0 29 0 32 68 3 66
3 67 36 77 24 7 32 15 32 32 0 27 -25 31 -57 8 -19 -13 -22 -13 -27 0 -6 15
-28 20 -39 8z"/>
<path d="M2893 1756 c-24 -21 -28 -32 -28 -76 0 -44 4 -55 28 -76 39 -33 99
-33 132 1 19 19 25 35 25 70 0 91 -91 137 -157 81z m95 -78 c3 -40 0 -47 -18
-53 -28 -9 -50 11 -50 45 0 47 10 61 39 58 23 -3 26 -8 29 -50z"/>
<path d="M3097 1773 c-4 -3 -7 -48 -7 -100 l0 -93 30 0 30 0 0 63 c0 73 9 90
41 85 22 -3 24 -8 27 -75 3 -70 4 -73 27 -73 25 0 25 1 25 84 0 76 -2 86 -22
100 -27 19 -69 21 -86 4 -9 -9 -15 -9 -24 0 -13 13 -31 16 -41 5z"/>
<path d="M3677 1773 c-33 -9 -15 -38 23 -38 19 0 41 -4 48 -8 23 -15 12 -27
-26 -27 -68 0 -101 -46 -72 -101 12 -22 78 -27 99 -6 11 10 14 10 18 0 3 -7
13 -13 24 -13 17 0 19 8 19 84 0 76 -2 86 -22 100 -21 15 -72 19 -111 9z m83
-116 c0 -19 -21 -37 -42 -37 -18 0 -25 29 -11 43 12 12 53 7 53 -6z"/>
<path d="M4265 1757 c-20 -16 -28 -35 -32 -69 -5 -43 -3 -50 26 -78 28 -28 36
-31 83 -28 46 3 53 6 56 26 3 21 1 22 -37 16 -27 -4 -46 -2 -56 6 -27 22 -16
30 45 30 l60 0 0 35 c0 75 -87 112 -145 62z m83 -29 c20 -20 14 -28 -23 -28
-19 0 -35 4 -35 8 0 12 22 32 35 32 6 0 16 -5 23 -12z"/>
<path d="M4588 1775 c-3 -3 7 -48 21 -100 25 -95 26 -95 57 -95 31 0 32 1 45
65 7 36 16 65 19 65 3 0 12 -29 19 -65 13 -64 14 -65 45 -65 31 0 32 1 55 88
30 111 30 107 1 107 -22 0 -27 -7 -41 -60 -17 -63 -17 -63 -39 23 -10 37 -14
42 -40 42 -19 0 -30 -6 -34 -17 -3 -10 -10 -38 -17 -63 l-11 -45 -14 54 c-8
29 -17 57 -20 62 -6 10 -37 12 -46 4z"/>
<path d="M4943 1770 c-34 -14 -47 -50 -44 -118 2 -38 44 -72 89 -72 77 0 119
69 88 145 -21 49 -76 68 -133 45z m83 -65 c13 -51 -14 -93 -50 -79 -20 8 -30
58 -16 83 16 31 58 28 66 -4z"/>
<path d="M5130 1680 l0 -100 25 0 c24 0 25 3 25 58 0 62 18 92 53 92 11 0 17
8 17 25 0 29 -24 33 -58 9 -20 -14 -22 -14 -22 0 0 9 -9 16 -20 16 -19 0 -20
-7 -20 -100z"/>
</g>
</svg>
